# xmcd
#
# Track frame offsets:
# 150
# 13578
# 31904
# 47658
# 65542
# 87341
# 102436
# 118118
# 134236
# 147607
# 163786
# 183394
# 195726
# 210924
# 224964
# 239882
# 255284
# 273336
# 287528
# 304197
# 318140
# 329546
# 342277
#
# Disc length: 4777 seconds
#
#
# Revision: 0
# Processed by: cddbd v1.5.2PL0 Copyright (c) Steve Scherf et al.
# Submitted via: FreeRIP 2.951 
#
DISCID=6c12a717
DTITLE=VARIOS - VIOLA DE OURO
DYEAR=1900
DGENRE=SERTANEJO
TTITLE0=A ENXADA E A CANETA-ZICO E ZECA
TTITLE1=O HOMEM E A ESPINGARDA-ZE MULATO E CASSIANO
TTITLE2=RELÓGIO QUEBRADO-NESTOR E NESTORZINHO
TTITLE3=DESATINO-GERALDO VIOLA E DINO GUEDES
TTITLE4=LEGÍTIMO DOUTOR-LIU E LEU
TTITLE5=A VACA FOI PRO BREJO-TIAO CARREIRO E PARDINHO
TTITLE6=A MOCA QUE DANCOU COM O DIABO-VIEIRA E VIEIRINHA
TTITLE7=LEITAO A PURURUCA-LOURENCO E LOURIVAL
TTITLE8=VALEU A PENA- FABIANO E CESINHA
TTITLE9=AZULAO DO REINO ENCANTADO-TIAO CARREIRO E PARDINHO
TTITLE10=CACADA DE ONCA-CRAVEIRO E CRAVINHO
TTITLE11=TERRA DE VIOLEIRO-JADS JADSON
TTITLE12=SERTAO DO LARANJINHA-TONICO E TINOCO
TTITLE13=MEU CEU-ZE MULATO E CASSIANO
TTITLE14=BOI SOBERANO-ZE CARREIRO E CARREIRINHO
TTITLE15=SACO DE OURO-LOURENCO E LOURIVAL
TTITLE16=MEU RECANTO,MEU PARAISO-GOIANO E PARANAENSE
TTITLE17=SAUDADES DA MINHA TERRA-BELMONTE E AMARAI
TTITLE18=REI DO GADO-LIU E LEU
TTITLE19=AS ESPORAS DO FERREIRINHA-PEDRO BENTO E ZE DA ESTRADA
TTITLE20=REI DA CAPA-PEDRO BENTO E ZE DA ESTRADA
TTITLE21=NO FIM DOS TEMPOS-GOIANO E PARANAENSE
TTITLE22=PRATO DO DIA-TIAO CARREIRO E PARDINHO
EXTD=
EXTT0=
EXTT1=
EXTT2=
EXTT3=
EXTT4=
EXTT5=
EXTT6=
EXTT7=
EXTT8=
EXTT9=
EXTT10=
EXTT11=
EXTT12=
EXTT13=
EXTT14=
EXTT15=
EXTT16=
EXTT17=
EXTT18=
EXTT19=
EXTT20=
EXTT21=
EXTT22=
PLAYORDER=
